<svg width="301" height="300" viewBox="0 0 301 300" fill="none" xmlns="http://www.w3.org/2000/svg">
<path fill-rule="evenodd" clip-rule="evenodd" d="M35.1876 209.302L11.01 184.577L63.2763 131.129L6.98047 73.5608L31.1581 48.8365L111.632 131.129L35.1876 209.302Z" fill="#55C6FF"/>
<path fill-rule="evenodd" clip-rule="evenodd" d="M97.6807 264.815L121.33 288.992L172.454 236.726L227.52 293.022L251.169 268.844L172.454 188.37L97.6807 264.815Z" fill="#55C6FF"/>
<path fill-rule="evenodd" clip-rule="evenodd" d="M12.9997 182.353C5.28177 190.029 5.94506 201.654 13.663 209.329L19.6521 215.285L87.5568 216.046L89.5249 284.772L93.5176 288.743C101.235 296.419 113.749 296.419 121.466 288.743L121.436 182.353L12.9997 182.353Z" fill="#9A71FF"/>
<path d="M89.1797 273.875V284.75L94.4172 289.375C102.054 297.01 113.894 296.234 121.53 288.599V240.38L89.1797 273.875Z" fill="#584DE2"/>
<path fill-rule="evenodd" clip-rule="evenodd" d="M209.31 35.1834L181.75 13.75L131.137 63.2723L73.5689 6.97632L48.8447 31.1539L131.137 111.627L209.31 35.1834Z" fill="#FF3E80"/>
<path fill-rule="evenodd" clip-rule="evenodd" d="M264.821 97.6732L288.999 121.322L236.732 172.447L293.028 227.513L268.85 251.162L188.377 172.447L264.821 97.6732Z" fill="#FF3E80"/>
<path fill-rule="evenodd" clip-rule="evenodd" d="M181 14.75C187.625 6.50006 203.683 7.08078 211.375 14.75L215.349 18.7034L216.112 86.1796L284.988 88.1353L288.967 92.1028C296.66 99.7716 296.66 112.207 288.967 119.875L182.346 119.845L181 14.75Z" fill="#FFC300"/>
<path d="M274.388 87.8671L286.237 87.866L290.186 91.8156C297.821 99.45 296 113.875 289 121.375L242.125 119.875L274.388 87.8671Z" fill="#FF7800"/>
<path d="M30.0756 215.374L19.25 215.374L12.2822 208C4.25 198.75 7.375 186.75 13.375 182.25L61.75 182.25L30.0756 215.374Z" fill="#584DE2"/>
<path d="M215.28 30.125V18.234L210.969 14.1416C202.632 6.23117 188.625 5.95824 181 14.3499L181.625 62.375L215.28 30.125Z" fill="#FF7800"/>
</svg>
