<svg width="400" height="400" viewBox="0 0 400 400" fill="none" xmlns="http://www.w3.org/2000/svg">
<g clip-path="url(#clip0)">
<path d="M17.5598 151.03L40.6798 137.68V111L17.5598 124.34V151.03Z" fill="#67809E"/>
<path d="M63.8 151.03V124.34L40.68 111L40 137.29L63.8 151.03Z" fill="#A7596A"/>
<path d="M40.6798 111L17.5598 124.34L40.6798 137.68L63.7998 124.34L40.6798 111ZM24.3298 124.34L40.6798 114.91L56.9998 124.34L40.6798 133.75L24.3298 124.34Z" fill="#FACDD6"/>
<path d="M40.6799 174.59V137.68L17.5599 124.34L16.8799 160.85L40.6799 174.59Z" fill="#DE6C84"/>
<path d="M40.6799 174.2L63.7999 160.85V124.34L40.6799 137.68V174.2Z" fill="#7BA6D8"/>
<path d="M55.6998 135.12L50.0198 138.4L61.3798 144.95L67.0098 141.65L55.6998 135.12Z" fill="#FACDD6"/>
<path d="M55.6998 148.22L50.0198 151.49L61.3798 158.05L67.0098 154.75L55.6998 148.22Z" fill="#FACDD6"/>
<path d="M61.3799 164.61L67.0499 161.34L67.0099 141.65L61.3799 144.95V164.61Z" fill="#7BA6D8"/>
<path d="M50.0198 144.95V138.4L61.3798 144.95V164.61L50.0198 158.06V151.51L55.6998 154.78V148.23L50.0198 144.95Z" fill="#DE6C84"/>
<path d="M133.92 162.04L142.38 156.85L362.41 283.81L353.73 289.13L133.92 162.04Z" fill="#B5969D"/>
<path d="M143.59 1V157.66L135.14 162.3V6.19L143.59 1Z" fill="#67809E"/>
<path d="M133.92 6.20001V162.3L353.73 289.13V133.28L133.92 6.20001ZM347.75 282.14L137.43 160.89V18.22L347.75 139.74V282.14Z" fill="#DE6C84"/>
<path d="M362.41 284.06L362.3 284.31L353.73 289.13V133.28L362.41 127.96V284.06Z" fill="#7BA6D8"/>
<path d="M133.92 6.19L142.38 1L362.41 127.96L353.73 133.28L133.92 6.19Z" fill="#FACDD6"/>
<path d="M90.6499 175L6.10986 224.38L225.92 350.92L310.46 301.51L90.6499 175Z" fill="#FACDD6"/>
<path d="M6.10986 233.6V224.38L225.92 350.92V360.43L6.10986 233.6Z" fill="#DE6C84"/>
<path d="M310.46 311.63V301.51L225.92 350.92V360.43L310.46 311.63Z" fill="#7BA6D8"/>
<path d="M62.5098 228.5L49.5398 235.99L192.19 318.29L205.16 310.81L62.5098 228.5Z" fill="#FACDD6"/>
<path d="M49.5398 242.57V235.99L192.19 318.29L205.16 310.81V317.39L192.11 324.82L49.5398 242.57Z" fill="#DE6C84"/>
<path d="M325.67 314L258.51 353.22L326.74 392.48L393.89 353.22L325.67 314Z" fill="#FACDD6"/>
<path d="M258.51 360.54V353.22L326.74 392.48V400.03L258.51 360.54Z" fill="#DE6C84"/>
<path d="M393.89 361.26V353.22L326.74 392.48V400.03L393.89 361.26Z" fill="#7BA6D8"/>
<path d="M106 35.28V159.72L325.81 286.55V162.12L106 35.28Z" fill="#7BA6D8" fill-opacity="0.8" stroke="black" stroke-miterlimit="10"/>
<path d="M325.81 162.11L106 35.28" stroke="black" stroke-miterlimit="10"/>
<path d="M231.14 107.15V231.81L325.81 286.66V162.01L231.14 107.15Z" stroke="black" stroke-miterlimit="10"/>
<path d="M231.14 181.85V231.81L325.81 286.66V236.71L231.14 181.85Z" stroke="black" stroke-miterlimit="10"/>
<path d="M106 23.14V35.28L325.81 162.12V149.97L106 23.14Z" fill="white" fill-opacity="0.8" stroke="black" stroke-miterlimit="10"/>
<path d="M118.43 104.05V92.47L124.43 95.95V98.27L126.43 99.43V101.75L124.43 100.59V102.91L126.43 104.07V106.38L124.43 105.22V107.54L118.43 104.05ZM124.43 105.22V102.91L120.43 100.59V102.9L124.43 105.22ZM120.43 98.22L124.43 100.54V98.27L120.43 95.95V98.22Z" fill="black"/>
<path d="M128.52 109.87V98.27L134.52 101.75V104.07L130.52 101.75V104.07L134.52 106.39V108.71L130.52 106.39V108.71L134.52 111.03V113.35L128.52 109.87Z" fill="black"/>
<path d="M136.55 114.51V102.91L142.55 106.39V108.71L138.55 106.39V108.71L142.55 111.03V113.35L138.61 111V113.32L142.61 115.64V118L136.55 114.51Z" fill="black"/>
<path d="M144.61 119.16V107.56L150.61 111.04V113.36L152.61 114.52V116.84L150.61 115.68V118L146.61 115.68V120.32L144.61 119.16ZM150.67 115.69V113.37L146.61 111V113.32L150.67 115.69Z" fill="black"/>
<path d="M160.7 128.44V116.85L166.7 120.33V122.65L168.7 123.81V126.13L166.7 124.97V127.29L168.7 128.45V130.76L166.7 129.6V131.92L160.7 128.44ZM166.7 129.6V127.3L162.7 124.98V127.29L166.7 129.6ZM162.7 122.65L166.7 124.97V122.65L162.7 120.33V122.65Z" fill="black"/>
<path d="M172.8 133.1L170.8 131.94V124.94L172.8 126.1V123.78L176.8 126.1V128.42L178.8 129.58V136.58L176.8 135.42V137.74L172.8 135.42V133.1ZM172.8 133.1L176.8 135.42V128.42L172.8 126.1V133.1Z" fill="black"/>
<path d="M182.87 138.91L180.87 137.75V130.75L182.87 131.91V129.59L186.87 131.91V134.23L188.87 135.39V142.39L186.87 141.23V143.55L182.87 141.23V138.91ZM182.87 138.91L186.87 141.23V134.23L182.87 131.91V138.91Z" fill="black"/>
<path d="M190.9 145.87V134.27L196.9 137.75V140.07L198.9 141.23V143.55L196.9 142.39V144.71L192.9 142.39V147.03L190.9 145.87ZM196.96 142.4V140.08L192.96 137.76V140.08L196.96 142.4Z" fill="black"/>
<path d="M203 150.52V152.84L201 151.68V149.36L203 150.52ZM203 141.24V148.24L201 147.08V140.08L203 141.24Z" fill="black"/>
</g>
<defs>
<clipPath id="clip0">
<rect width="400" height="400" fill="white"/>
</clipPath>
</defs>
</svg>
